<svg xmlns="http://www.w3.org/2000/svg" viewBox="0 0 64 64" role="img" aria-label="Cansu Ugur favicon">
  <defs>
    <linearGradient id="bg" x1="12" y1="8" x2="52" y2="56" gradientUnits="userSpaceOnUse">
      <stop offset="0" stop-color="#fffaed" />
      <stop offset="1" stop-color="#ffe5e0" />
    </linearGradient>
    <linearGradient id="accent" x1="18" y1="18" x2="49" y2="46" gradientUnits="userSpaceOnUse">
      <stop offset="0" stop-color="#ff7d59" />
      <stop offset="1" stop-color="#faab94" />
    </linearGradient>
  </defs>
  <rect width="64" height="64" rx="20" fill="#f4efe4" />
  <path
    d="M11 31c0-11.6 9.4-21 21-21 5.8 0 10.4 1.6 14.4 4.7 1.5 1.1 1.8 3.2.8 4.7-1.1 1.5-3.2 1.8-4.7.8-2.9-2.2-6.3-3.3-10.5-3.3-7.9 0-14.3 6.4-14.3 14.2S24.1 45.1 32 45.1c4.2 0 7.8-1.2 10.9-3.7 1.4-1.1 3.5-.9 4.7.5 1.2 1.5.9 3.6-.5 4.8-4.2 3.5-9.4 5.3-15.2 5.3-11.5 0-20.9-9.4-20.9-21Z"
    fill="url(#accent)"
  />
  <path
    d="M40.5 13.4c5.9 2.7 10.4 7.9 11.9 14.5.4 1.8-.7 3.6-2.6 4.1-1.8.4-3.6-.7-4-2.6-1.1-4.5-4.1-8.1-8.1-10.1l2.8-5.9Z"
    fill="#99b0ed"
  />
  <circle cx="47.5" cy="44.5" r="4.5" fill="#8f9631" />
  <path d="M50 8c3.3 0 6 2.7 6 6v5.5c0 1.4-1.1 2.5-2.5 2.5H48c-3.3 0-6-2.7-6-6v-1.5c0-3.6 2.9-6.5 6.5-6.5H50Z" fill="url(#bg)" opacity=".95" />
</svg>
